<?xml version="1.0" encoding="utf-8"?>
<!-- Generator: Adobe Illustrator 21.1.0, SVG Export Plug-In . SVG Version: 6.00 Build 0)  -->
<svg version="1.1" id="Layer_1" xmlns="http://www.w3.org/2000/svg" xmlns:xlink="http://www.w3.org/1999/xlink" x="0px" y="0px"
	 viewBox="0 0 15 22" style="enable-background:new 0 0 15 22;" xml:space="preserve">
<style type="text/css">
	.st0{fill:none;stroke:#000000;stroke-miterlimit:10;}
</style>
<line class="st0" x1="0.5" y1="8.5" x2="4.5" y2="15.5"/>
<line class="st0" x1="8.5" y1="8.5" x2="4.5" y2="15.5"/>
<line class="st0" x1="0.5" y1="8.5" x2="8.5" y2="8.5"/>
<g>
	<g>
		<path d="M4.4,8.9c-0.1,0-0.2,0-0.3-0.1c-0.3-0.1,0,0-0.1,0C3.8,8.7,4.2,9,4,8.8c0,0-0.2-0.3-0.1-0.1c-0.5-0.7-1.3-1-2.1-0.5
			c-0.7,0.4-1,1.4-0.5,2.1c0.5,0.8,1.3,1.4,2.3,1.6c0.8,0.1,1.7-0.2,1.8-1C5.6,10.1,5.2,9,4.4,8.9L4.4,8.9z"/>
	</g>
</g>
<g>
	<g>
		<path d="M3.7,10.6c0.1,0.1,0.2,0.3,0.2,0.4c-0.1-0.1,0,0.1,0,0.1c-0.1,0,0.4-0.6,0.3-0.6c-0.1,0-0.4,0.3-0.5,0.3
			c-0.7,0.6-1,1.6-0.7,2.4c0.6,1.8,3.5,1,2.9-0.8c0,0.2-0.1,0.3-0.2,0.4c-0.2,0.3-0.3,0.4,0,0.2C6,13,6.2,12.8,6.3,12.6
			c0.3-0.3,0.5-0.8,0.6-1.3C7,10.5,6.7,9.7,6.2,9C5.2,7.4,2.6,8.9,3.7,10.6L3.7,10.6z"/>
	</g>
</g>
<g>
	<g>
		<path d="M3.6,13.1c1.9,0,1.9-3,0-3C1.7,10.1,1.7,13.1,3.6,13.1L3.6,13.1z"/>
	</g>
</g>
<g>
	<g>
		<path d="M4.6,14.9c1.9,0,1.9-3,0-3C2.7,11.9,2.7,14.9,4.6,14.9L4.6,14.9z"/>
	</g>
</g>
<g>
	<g>
		<path d="M6.4,11c1.9,0,1.9-3,0-3C4.4,8,4.4,11,6.4,11L6.4,11z"/>
	</g>
</g>
</svg>
